<?xml version="1.0" standalone="no"?><!DOCTYPE svg PUBLIC "-//W3C//DTD SVG 1.1//EN" "http://www.w3.org/Graphics/SVG/1.1/DTD/svg11.dtd"><svg t="1586778930813" class="icon" viewBox="0 0 1024 1024" version="1.1" xmlns="http://www.w3.org/2000/svg" p-id="3387" xmlns:xlink="http://www.w3.org/1999/xlink" width="48" height="48"><defs><style type="text/css"></style></defs><path d="M512 684.373333a149.333333 149.333333 0 1 1 149.333333-149.333333 149.333333 149.333333 0 0 1-149.333333 149.333333z m0-256a106.666667 106.666667 0 1 0 106.666667 106.666667 106.666667 106.666667 0 0 0-106.666667-106.666667zM350.293333 158.933333a21.333333 21.333333 0 0 0-36.906666 21.333334l23.893333 41.6c13.866667-4.693333 27.946667-8.746667 42.666667-12.16zM70.826667 310.826667a21.333333 21.333333 0 0 0-21.333334 36.906666l42.666667 24.96q15.146667-15.36 32.64-30.293333zM673.706667 178.56a21.333333 21.333333 0 0 0-36.906667-21.333333l-26.026667 45.226666c14.72 2.773333 29.013333 6.4 42.666667 10.24zM938.666667 327.253333a21.333333 21.333333 0 0 0-21.333334-36.906666L866.56 320c12.373333 9.386667 24.32 18.986667 35.413333 28.8z" fill="#EB9E52" p-id="3388"></path><path d="M901.973333 347.946667c-11.093333-9.813333-23.04-19.413333-35.413333-28.8a644.693333 644.693333 0 0 0-213.333333-106.666667c-14.293333-4.053333-28.586667-7.466667-42.666667-10.24A514.986667 514.986667 0 0 0 512 192a541.653333 541.653333 0 0 0-132.48 16.853333c-14.293333 3.626667-28.373333 7.68-42.666667 12.16A638.08 638.08 0 0 0 125.226667 341.333333q-17.493333 14.933333-32.64 30.293334C35.413333 430.506667 1.493333 490.666667 1.493333 535.04c0 115.626667 231.04 341.333333 510.293334 341.333333 269.013333 0 510.506667-232.533333 510.506666-341.333333 0.213333-49.493333-45.653333-121.813333-120.32-187.093333zM512 804.266667c-250.88 0-437.12-201.6-437.12-264.746667 0-56.533333 183.68-264.746667 436.906667-264.746667s437.333333 213.333333 437.333333 264.746667S757.973333 804.266667 512 804.266667z" fill="#5C8EF3" p-id="3389"></path></svg>