<?xml version="1.0" standalone="no"?><!DOCTYPE svg PUBLIC "-//W3C//DTD SVG 1.1//EN" "http://www.w3.org/Graphics/SVG/1.1/DTD/svg11.dtd"><svg t="1586776929158" class="icon" viewBox="0 0 1024 1024" version="1.1" xmlns="http://www.w3.org/2000/svg" p-id="2453" xmlns:xlink="http://www.w3.org/1999/xlink" width="48" height="48"><defs><style type="text/css"></style></defs><path d="M708.48 827.52v167.488H579.584v-264.064a382.976 382.976 0 0 0 315.52-315.52H1024c-19.328 186.752-148.096 347.776-315.52 412.16zM321.984 827.52C148.096 763.264 25.792 602.24 0 415.36h128.832a382.976 382.976 0 0 0 315.52 315.584v264.064H321.984v-167.424z" fill="#212D89" p-id="2454"></path><path d="M656.896 28.992c103.04 0 180.352 70.848 180.352 180.288 0 90.24-77.312 186.816-135.232 238.336-38.656 38.592-103.04 77.248-186.816 122.368C431.488 524.8 367.104 486.208 328.448 447.616 264.064 389.632 193.28 299.456 193.28 209.28c0-109.44 77.248-180.288 180.288-180.288 57.984 0 103.04 25.728 141.696 70.848C553.856 54.72 598.912 28.992 656.896 28.992z" fill="#F35A48" p-id="2455"></path></svg>