<?xml version="1.0" standalone="no"?><!DOCTYPE svg PUBLIC "-//W3C//DTD SVG 1.1//EN" "http://www.w3.org/Graphics/SVG/1.1/DTD/svg11.dtd"><svg t="1586791013546" class="icon" viewBox="0 0 1024 1024" version="1.1" xmlns="http://www.w3.org/2000/svg" p-id="4147" xmlns:xlink="http://www.w3.org/1999/xlink" width="48" height="48"><defs><style type="text/css"></style></defs><path d="M512.000003 1024a512 512 0 1 1 512-512 512.647965 512.647965 0 0 1-512 512z m0-963.685298a451.685298 451.685298 0 1 0 451.685298 451.685298 452.225269 452.225269 0 0 0-451.685298-451.685298z" fill="#08924a" p-id="4148"></path><path d="M512.000003 813.195528a30.076355 30.076355 0 0 1-30.076355-30.076355V241.420797a30.076355 30.076355 0 0 1 60.15271 0v541.698376a30.076355 30.076355 0 0 1-30.076355 30.076355z" fill="#08924a" p-id="4149"></path><path d="M692.620125 451.739296a30.076355 30.076355 0 0 1-21.274836-8.855516L512.000003 283.538494 352.546723 442.88378a30.130352 30.130352 0 0 1-42.60367-42.60367l180.674119-180.728117a30.184349 30.184349 0 0 1 42.657667 0l180.728117 180.728117a30.184349 30.184349 0 0 1-21.598819 51.459186z" fill="#08924a" p-id="4150"></path></svg>