<?xml version="1.0" standalone="no"?><!DOCTYPE svg PUBLIC "-//W3C//DTD SVG 1.1//EN" "http://www.w3.org/Graphics/SVG/1.1/DTD/svg11.dtd"><svg t="1586791376899" class="icon" viewBox="0 0 1024 1024" version="1.1" xmlns="http://www.w3.org/2000/svg" p-id="6489" xmlns:xlink="http://www.w3.org/1999/xlink" width="48" height="48"><defs><style type="text/css"></style></defs><path d="M542.208 311.296c-16.384-16.896-43.52-16.896-59.904 0L300.544 492.032c-16.384 16.896-15.872 44.032 1.024 60.416 16.384 15.872 42.496 15.872 59.392 0l108.032-87.552v218.112c0 23.552 18.944 42.496 42.496 42.496s42.496-18.944 42.496-42.496V464.896l108.032 87.552c16.896 16.384 44.032 15.872 60.416-1.024 15.872-16.384 15.872-42.496 0-59.392l-180.224-180.736zM512 938.496c-235.52 0-426.496-190.976-426.496-426.496S276.48 85.504 512 85.504 938.496 276.48 938.496 512 747.52 938.496 512 938.496z" p-id="6490" fill="#cdcdcd"></path></svg>